Coordinates
version=1
nRows=11
nColumns=36
inDegrees=yes

Units are S.I. units (second, meters, Newtons, ...)
If the header above contains a line with 'inDegrees', this indicates whether rotational values are in degrees (yes) or radians (no).

endheader
time	pelvis_tilt	pelvis_list	pelvis_rotation	pelvis_tx	pelvis_ty	pelvis_tz	hip_flexion_r	hip_adduction_r	hip_rotation_r	knee_angle_r	knee_angle_r_beta	ankle_angle_r	subtalar_angle_r	mtp_angle_r	hip_flexion_l	hip_adduction_l	hip_rotation_l	knee_angle_l	knee_angle_l_beta	ankle_angle_l	subtalar_angle_l	mtp_angle_l	lumbar_extension	lumbar_bending	lumbar_rotation	arm_flex_r	arm_add_r	arm_rot_r	elbow_flex_r	pro_sup_r	arm_flex_l	arm_add_l	arm_rot_l	elbow_flex_l	pro_sup_l
      3.83333330	    -17.33464979	     -2.04274069	     10.04439958	      0.10914402	      0.82741649	     -0.23756477	     61.54124923	     -4.15390787	     -1.04919823	     71.11932225	      1.24126634	     34.58605286	     -4.71467190	     -7.49999987	     56.53104235	     -9.47978161	      3.02515569	     68.77931577	      1.20042552	     32.48733539	     -6.11376306	     -7.49999987	     -2.82514150	      2.42466527	      0.17782873	     19.74596295	    -21.57887114	     37.17439310	     59.39379867	     74.24605147	     19.82619229	    -11.28423610	     24.18721655	     46.05272824	     78.06974908
      3.85000000	    -16.97753674	     -1.97542567	     10.30692700	      0.11160653	      0.84868906	     -0.23550382	     59.25469116	     -4.42824954	     -1.48843535	     68.17106639	      1.18980956	     33.88532412	     -4.57940971	     -7.49999987	     54.06806264	     -9.53428648	      2.39375442	     65.39011582	      1.14127282	     31.12029283	     -5.77747201	     -7.49999987	     -2.11386555	      2.29220609	     -0.03020883	     19.07734033	    -20.88632038	     36.35309217	     56.79036287	     73.51256840	     19.91956935	    -10.81548410	     24.12633779	     44.12370361	     78.16137041
      3.86666670	    -16.88324186	     -1.94452787	     10.47925651	      0.10585474	      0.86237052	     -0.23004483	     57.30998500	     -4.51475492	     -1.79496303	     65.12904161	      1.13671621	     32.45385770	     -4.74850320	     -7.49999987	     52.13194414	     -9.63817171	      1.65675283	     61.99054378	      1.08193909	     29.10167223	     -5.51326142	     -7.49999987	     -1.36419872	      1.93911487	     -0.08848106	     18.55603982	    -20.27182955	     35.53123179	     55.46675370	     73.23326409	     19.97614049	    -11.03326057	     24.57451333	     43.63775062	     78.57589609
      3.88333330	    -16.69349031	     -2.03178999	     10.66288696	      0.11115909	      0.87219142	     -0.22652085	     55.19518899	     -4.42347093	     -2.27746122	     62.04061798	      1.08281305	     31.36328471	     -4.66373635	     -7.49999987	     50.02322134	    -10.00709109	      0.99009293	     58.60385453	      1.02283022	     27.28180225	     -5.16459042	     -7.49999987	     -0.26435691	      1.51773860	     -0.21393147	     17.50539971	    -19.21446098	     34.36791771	     53.72661629	     72.71960465	     19.54383593	    -11.30628667	     24.86732608	     42.62027163	     78.55054172
      3.90000000	    -16.18187787	     -1.74364221	     10.73125199	      0.11932989	      0.88791471	     -0.23929402	     52.21681297	     -4.73516266	     -2.60603500	     58.42953815	      1.01978782	     30.17224164	     -4.52380968	     -7.49999987	     46.87498246	     -9.80352796	      0.10748352	     54.58597020	      0.95270491	     25.70422982	     -4.89051279	     -7.49999987	      0.70928907	      1.23918303	      0.03516371	     15.97731349	    -18.77458011	     32.87880750	     51.67377783	     72.31298538	     18.41158614	    -10.74124319	     24.61928208	     41.36539705	     78.57876161
      3.91666670	    -15.44011953	     -1.49543195	     10.85132767	      0.12322566	      0.90784283	     -0.23558575	     48.67413612	     -4.90058223	     -3.02744749	     54.27282576	      0.94723950	     28.58040929	     -4.51229833	     -7.49999987	     43.38738645	     -9.59973285	     -0.61451648	     50.31228819	      0.87811508	     23.56748239	     -4.86146304	     -7.49999987	      1.43685907	      1.09425960	      0.44121266	     14.60875432	    -17.99503335	     31.05517815	     49.15778703	     72.34283866	     17.23328978	    -10.16347533	     24.07111046	     39.74328946	     78.99825383
      3.93333330	    -14.69026946	     -1.53947646	     10.98239152	      0.12870765	      0.92290013	     -0.23246274	     45.15346756	     -4.68710374	     -3.60232614	     50.08591093	      0.87416405	     26.80040760	     -4.72039991	     -7.49999987	     40.12929858	     -9.80776335	     -1.28029612	     46.25644955	      0.80732734	     21.40734138	     -4.62327023	     -7.49999987	      1.79671314	      0.97564660	      0.45752756	     13.74439545	    -16.97194255	     29.71793522	     46.71435629	     72.00668847	     16.24801931	    -10.05525831	     24.38067982	     38.09398066	     78.98201101
      3.95000000	    -14.01084933	     -1.56323359	     11.18999406	      0.12859856	      0.93384482	     -0.23263455	     42.32853488	     -4.50915349	     -4.11981078	     46.67437395	      0.81462150	     25.00510754	     -4.68548843	     -7.49999987	     37.37526856	     -9.98690608	     -2.02541845	     42.73961842	      0.74594706	     19.99626601	     -3.92838157	     -7.49999987	      2.21556430	      0.85995953	      0.76283130	     13.36759354	    -16.31722128	     28.67512306	     44.65906620	     71.83804455	     15.97489824	     -9.91598398	     24.93809635	     36.72210750	     78.98728166
      3.96666670	    -13.59587907	     -1.49758462	     11.28658582	      0.12445859	      0.94471058	     -0.23639112	     40.22518184	     -4.54454819	     -4.57544383	     43.64960035	      0.76182924	     22.99025018	     -4.42022914	     -7.49999987	     35.12049408	     -9.91213925	     -2.78797412	     39.38351125	      0.68737194	     19.20253424	     -3.02521819	     -7.49999987	      2.54674081	      0.72904659	      1.09459965	     13.28617900	    -16.34129551	     27.68355344	     44.06549193	     71.79221552	     16.07962310	     -9.86644642	     25.85925030	     36.61594812	     78.97589384
      3.98333330	    -13.09873904	     -1.42008816	     11.29533186	      0.12470687	      0.95875789	     -0.23511724	     38.20470981	     -4.49322149	     -4.93291930	     40.81500623	      0.71235624	     21.10955024	     -4.05655927	     -7.49999987	     32.71715883	     -9.81466744	     -3.44856197	     35.86945755	      0.62604014	     18.08092168	     -2.40113707	     -7.49999987	      2.86042369	      0.52280133	      1.33340153	     13.40182122	    -16.13809345	     26.83582214	     42.44758336	     71.73633182	     16.07578972	     -9.64745359	     26.05693818	     35.76549332	     78.50972099
      4.00000000	    -11.59528603	     -1.10719226	     11.24400868	      0.13518502	      0.97434153	     -0.23761082	     34.45946742	     -4.37127632	     -5.32718310	     37.11043999	      0.64769936	     19.11434691	     -3.87460764	     -7.49999987	     28.44613686	     -9.58774535	     -4.28267841	     31.23886134	      0.54522098	     16.80662053	     -1.37953824	     -7.49999987	      2.25096197	      0.38069834	      1.71041249	     12.71363247	    -16.02591018	     25.69490602	     40.95947067	     71.63268910	     15.23113434	     -9.35699802	     26.10742668	     34.74703730	     78.14667037
